<svg xmlns="http://www.w3.org/2000/svg" xmlns:xlink="http://www.w3.org/1999/xlink" width="512" zoomAndPan="magnify" viewBox="0 0 384 383.999986" height="512" preserveAspectRatio="xMidYMid meet" version="1.0"><defs><g/></defs><g fill="#000000" fill-opacity="1"><g transform="translate(39.517973, 251.99998)"><g><path d="M 16.15625 0 C 14.875 0 14.234375 -0.585938 14.234375 -1.765625 L 14.234375 -112.640625 C 14.234375 -113.816406 14.875 -114.40625 16.15625 -114.40625 L 28.3125 -114.40625 C 29.28125 -114.40625 29.976562 -113.976562 30.40625 -113.125 L 55.203125 -68 C 56.585938 -65.539062 58.078125 -62.738281 59.671875 -59.59375 C 61.273438 -56.445312 62.820312 -53.351562 64.3125 -50.3125 C 65.8125 -47.28125 67.039062 -44.75 68 -42.71875 L 68.484375 -42.71875 C 69.441406 -44.75 70.664062 -47.28125 72.15625 -50.3125 C 73.65625 -53.351562 75.226562 -56.445312 76.875 -59.59375 C 78.53125 -62.738281 80 -65.488281 81.28125 -67.84375 L 106.234375 -113.125 C 106.554688 -113.976562 107.25 -114.40625 108.3125 -114.40625 L 120.484375 -114.40625 C 121.648438 -114.40625 122.234375 -113.816406 122.234375 -112.640625 L 122.234375 -1.765625 C 122.234375 -0.585938 121.648438 0 120.484375 0 L 110.40625 0 C 109.226562 0 108.640625 -0.585938 108.640625 -1.765625 L 108.640625 -50.078125 C 108.640625 -56.796875 108.742188 -63.992188 108.953125 -71.671875 C 109.171875 -79.359375 109.382812 -86.613281 109.59375 -93.4375 L 109.28125 -93.59375 C 107.144531 -89.332031 104.847656 -84.828125 102.390625 -80.078125 C 99.941406 -75.328125 97.382812 -70.445312 94.71875 -65.4375 L 74.71875 -28.3125 C 74.1875 -27.46875 73.441406 -27.046875 72.484375 -27.046875 L 64 -27.046875 C 62.9375 -27.046875 62.242188 -27.46875 61.921875 -28.3125 L 41.921875 -65.4375 C 39.253906 -70.445312 36.691406 -75.328125 34.234375 -80.078125 C 31.785156 -84.828125 29.492188 -89.332031 27.359375 -93.59375 L 27.046875 -93.4375 C 27.253906 -86.613281 27.4375 -79.359375 27.59375 -71.671875 C 27.757812 -63.992188 27.84375 -56.796875 27.84375 -50.078125 L 27.84375 -1.765625 C 27.84375 -0.585938 27.253906 0 26.078125 0 Z M 16.15625 0 "/></g></g></g><g fill="#000000" fill-opacity="1"><g transform="translate(175.994629, 251.99998)"><g><path d="M 43.515625 0 C 42.453125 0 41.757812 -0.476562 41.4375 -1.4375 L 1.125 -112.3125 C 0.582031 -113.707031 1.0625 -114.40625 2.5625 -114.40625 L 13.4375 -114.40625 C 14.507812 -114.40625 15.203125 -113.921875 15.515625 -112.953125 L 38.71875 -47.515625 C 40.632812 -42.179688 42.550781 -36.769531 44.46875 -31.28125 C 46.394531 -25.789062 48.265625 -20.378906 50.078125 -15.046875 L 50.5625 -15.046875 C 52.476562 -20.378906 54.367188 -25.738281 56.234375 -31.125 C 58.109375 -36.507812 59.953125 -41.867188 61.765625 -47.203125 L 85.125 -112.953125 C 85.4375 -113.921875 86.128906 -114.40625 87.203125 -114.40625 L 98.078125 -114.40625 C 99.359375 -114.40625 99.835938 -113.707031 99.515625 -112.3125 L 59.203125 -1.4375 C 58.878906 -0.476562 58.1875 0 57.125 0 Z M 43.515625 0 "/></g></g></g><g fill="#000000" fill-opacity="1"><g transform="translate(264.632352, 251.99998)"><g><path d="M 67.359375 -36.484375 C 67.359375 -24.109375 64.238281 -14.640625 58 -8.078125 C 51.757812 -1.515625 43.734375 1.765625 33.921875 1.765625 C 27.410156 1.765625 21.703125 0.671875 16.796875 -1.515625 C 11.890625 -3.703125 7.09375 -6.769531 2.40625 -10.71875 C 1.4375 -11.363281 1.328125 -12.21875 2.078125 -13.28125 L 6.5625 -20.640625 C 7.195312 -21.703125 8.050781 -21.804688 9.125 -20.953125 C 12.851562 -17.972656 16.691406 -15.601562 20.640625 -13.84375 C 24.585938 -12.082031 29.015625 -11.203125 33.921875 -11.203125 C 40.109375 -11.203125 44.960938 -13.226562 48.484375 -17.28125 C 52.003906 -21.332031 53.765625 -27.785156 53.765625 -36.640625 L 53.765625 -112.640625 C 53.765625 -113.816406 54.40625 -114.40625 55.6875 -114.40625 L 65.59375 -114.40625 C 66.769531 -114.40625 67.359375 -113.816406 67.359375 -112.640625 Z M 67.359375 -36.484375 "/></g></g></g></svg>